# xmcd
# 
# Track frame offsets:
#     150
#     17021
#     33223
#     48399
#     64007
#     81452
#     96830
#     111209
#     129427
#     147167
#     168119
#     183195
#     202140
#     218806
#     230568
#     255749
#     267636
#     281124
#     298630
#     322762
# 
# Disc length: 4590
# 
# Revision: 1
# Processed by: cddbd v1.5.2PL0 Copyright (c) Steve Scherf et al.
# Submitted via: fre:ac v1.0.27
# 
DISCID=2911ec14
DTITLE=Various Artist - De Pré Historie - De Jaren '70 - De Ultieme 10 CD Collectie - 1973
DYEAR=2018
DGENRE=Top 40
TTITLE0=Golden Earring - Radar Love
TTITLE1=Elvis Presley - Always On My Mind
TTITLE2=Dawn Feat. Tony Orlando - Tie A Yellow Ribbon Round The Ole Oak Tree
TTITLE3=Redbone - We Were All Wounded At Wounded Knee
TTITLE4=Boudewijn De Groot - Jimmy
TTITLE5=Stealers Wheel - Stuck In The Middle With You
TTITLE6=The Sweet - Blockbuster
TTITLE7=Santana - Samba Pa Ti
TTITLE8=Barry White - I'm Gonna Love You Just A Little More Baby
TTITLE9=Gladys Knight and The Pips - Midnight Train To Georgia
TTITLE10=Harold Melvin and The Blue Notes - If You Don't Know Me By Now
TTITLE11=Lou Reed - Walk On The Wild Side
TTITLE12=The Detroit Emeralds - Feel The Need In Me
TTITLE13=Ivan Heylen - De Werkmens
TTITLE14=The Isley Brothers - That Lady
TTITLE15=Will Tura - Verboden dromen
TTITLE16=Jim Croce - Bad, Bad Leroy Brown
TTITLE17=Elton John - Daniel
TTITLE18=Mort Shuman - Le Lac Majeur
TTITLE19=Billy Paul - Me And Mrs. Jones
EXTD=
EXTT0=
EXTT1=
EXTT2=
EXTT3=
EXTT4=
EXTT5=
EXTT6=
EXTT7=
EXTT8=
EXTT9=
EXTT10=
EXTT11=
EXTT12=
EXTT13=
EXTT14=
EXTT15=
EXTT16=
EXTT17=
EXTT18=
EXTT19=
PLAYORDER=
